<?xml version="1.0" encoding="UTF-8" standalone="no"?>
<!-- Created with Inkscape (http://www.inkscape.org/) -->

<svg
   xmlns:osb="http://www.openswatchbook.org/uri/2009/osb"
   xmlns:dc="http://purl.org/dc/elements/1.1/"
   xmlns:cc="http://creativecommons.org/ns#"
   xmlns:rdf="http://www.w3.org/1999/02/22-rdf-syntax-ns#"
   xmlns:svg="http://www.w3.org/2000/svg"
   xmlns="http://www.w3.org/2000/svg"
   xmlns:sodipodi="http://sodipodi.sourceforge.net/DTD/sodipodi-0.dtd"
   xmlns:inkscape="http://www.inkscape.org/namespaces/inkscape"
   width="210mm"
   height="297mm"
   viewBox="0 0 210 297"
   version="1.1"
   id="svg8"
   inkscape:version="0.92.3 (2405546, 2018-03-11)"
   sodipodi:docname="galaxy.svg">
  <sodipodi:namedview
     id="base"
     pagecolor="#ffffff"
     bordercolor="#666666"
     borderopacity="1.0"
     inkscape:pageopacity="0.0"
     inkscape:pageshadow="2"
     inkscape:zoom="1"
     inkscape:cx="653.73118"
     inkscape:cy="-222.62376"
     inkscape:document-units="px"
     inkscape:current-layer="layer1"
     showgrid="false"
     showborder="false"
     inkscape:window-width="1920"
     inkscape:window-height="1017"
     inkscape:window-x="1912"
     inkscape:window-y="-8"
     inkscape:window-maximized="1"
     inkscape:lockguides="false" />
  <defs
     id="defs2">
    <inkscape:path-effect
       effect="bend_path"
       id="path-effect2477"
       is_visible="true"
       bendpath="M -129.22128,137.72084 C -70.003026,98.783417 -21.966858,92.022728 51.886639,136.17026"
       prop_scale="-0.96165762"
       scale_y_rel="false"
       vertical="false"
       bendpath-nodetypes="cc" />
    <linearGradient
       osb:paint="solid"
       id="linearGradient2282">
      <stop
         id="stop2280"
         offset="0"
         style="stop-color:#000000;stop-opacity:1;" />
    </linearGradient>
  </defs>
  <metadata
     id="metadata5">
    <rdf:RDF>
      <cc:Work
         rdf:about="">
        <dc:format>image/svg+xml</dc:format>
        <dc:type
           rdf:resource="http://purl.org/dc/dcmitype/StillImage" />
        <dc:title />
      </cc:Work>
    </rdf:RDF>
  </metadata>
  <g
     id="layer1"
     inkscape:groupmode="layer"
     inkscape:label="Calque 1">
    <g
       id="g2758"
       transform="matrix(0.68969753,0,0,0.68969753,-50.852911,257.57718)"
       style="stroke-width:1.449911">
      <g
         id="g2500"
         transform="matrix(0,-0.32880875,-0.32880875,0,220.61845,94.956131)"
         style="stroke-width:4.40958691"
         inkscape:transform-center-x="-12.7"
         inkscape:transform-center-y="-35.983325">
        <path
           style="opacity:0.97000002;fill:#214478;fill-opacity:1;stroke:none;stroke-width:2.33340621;stroke-miterlimit:4;stroke-dasharray:none"
           d="m 51.803291,136.12047 c 2.878234,-4.81766 1.240387,-11.15201 -3.934409,-14.04251 -5.19464,-2.90159 -11.462603,-0.96802 -14.030088,4.03688 -2.563975,4.99804 -0.62922,11.11683 4.098541,13.75427 4.748023,2.64875 10.983781,1.07562 13.865956,-3.74864 z"
           id="path2486"
           inkscape:connector-curvature="0" />
        <path
           style="opacity:0.97000002;fill:#afc6e9;fill-opacity:1;stroke:none;stroke-width:2.33340621;stroke-miterlimit:4;stroke-dasharray:none"
           d="m -123.46929,134.01657 c -1.01199,-1.60663 -3.15471,-2.07727 -4.78788,-1.02401 -1.63223,1.05265 -2.08747,3.1974 -1.04522,4.78163 1.04245,1.58455 3.17887,2.01912 4.76817,0.99586 1.58834,-1.02265 2.07672,-3.14717 1.06493,-4.75348 z"
           id="path2488"
           inkscape:connector-curvature="0" />
        <path
           style="opacity:0.97000002;fill:#97b0d6;fill-opacity:1;stroke:none;stroke-width:2.33340621;stroke-miterlimit:4;stroke-dasharray:none"
           d="m -96.129596,118.99897 c -0.51782,-1.12686 -1.45454,-1.95649 -2.587482,-2.35015 -1.131656,-0.39322 -2.416152,-0.33495 -3.567842,0.22746 0,0 -3.1e-4,1.5e-4 -3.1e-4,1.5e-4 -1.12252,0.54828 -1.97694,1.51304 -2.37073,2.67226 -3e-5,1e-4 -7e-5,2.1e-4 -1e-4,3.1e-4 -0.39391,1.15983 -0.29336,2.41222 0.26149,3.48633 6e-5,1e-4 1e-4,2e-4 1.5e-4,2.9e-4 0.55454,1.07329 1.51653,1.88112 2.65953,2.25708 0,0 1.6e-4,5e-5 1.6e-4,5e-5 1.14372,0.37615 2.380993,0.29237 3.45018,-0.23051 5.1e-5,-2e-5 1.02e-4,-5e-5 1.53e-4,-7e-5 2.206941,-1.07941 3.204669,-3.77851 2.154801,-6.0632 z"
           id="path2490"
           inkscape:connector-curvature="0" />
        <path
           style="opacity:0.97000002;fill:#7f9ac3;fill-opacity:1;stroke:none;stroke-width:2.33340621;stroke-miterlimit:4;stroke-dasharray:none"
           d="m -66.689902,108.79803 c -0.340979,-1.49525 -1.266426,-2.75499 -2.579095,-3.52245 -1.310512,-0.7662 -2.927316,-0.9913 -4.486025,-0.5657 -2.23e-4,6e-5 -4.46e-4,1.2e-4 -6.7e-4,1.9e-4 -1.53303,0.41877 -2.823276,1.42124 -3.572072,2.76569 0,0 -3.28e-4,5.8e-4 -3.28e-4,5.8e-4 -0.749322,1.34579 -0.889112,2.9076 -0.431789,4.34543 6.7e-5,2.2e-4 1.34e-4,4.3e-4 2.01e-4,6.4e-4 0.456812,1.43565 1.470045,2.63211 2.77838,3.34505 9.6e-5,5e-5 1.91e-4,10e-5 2.86e-4,1.5e-4 1.310058,0.71378 2.821482,0.89443 4.225067,0.51001 1.06e-4,-3e-5 2.13e-4,-6e-5 3.2e-4,-9e-5 2.87675,-0.78805 4.762694,-3.82317 4.065725,-6.8795 z"
           id="path2492"
           inkscape:connector-curvature="0" />
        <path
           style="opacity:0.97000002;fill:#6885b0;fill-opacity:1;stroke:none;stroke-width:2.33340621;stroke-miterlimit:4;stroke-dasharray:none"
           d="m -35.734297,105.79129 c 0.06588,-1.82252 -0.609627,-3.56898 -1.917115,-4.86278 -1.30515,-1.291476 -3.144017,-2.029239 -5.100889,-1.987665 -2.2e-5,0 -10e-4,2.1e-5 -10e-4,2.1e-5 -0.559536,0.01197 -1.110885,0.08782 -1.642493,0.223084 -1.304499,0.335744 -2.477433,1.0253 -3.369859,1.99285 -2.3e-4,2.4e-4 -4.59e-4,4.9e-4 -6.88e-4,7.4e-4 -1.259155,1.36557 -1.840044,3.14928 -1.690735,4.94791 2.7e-5,3.3e-4 5.4e-5,6.5e-4 8e-5,9.6e-4 0.149251,1.79476 1.010053,3.46098 2.319874,4.64979 1.2e-4,1.1e-4 2.4e-4,2.1e-4 3.6e-4,3.2e-4 0.932088,0.84585 2.04767,1.41219 3.221538,1.65689 0.480732,0.0986 0.972993,0.14353 1.469678,0.1316 -10e-7,0 4.89e-4,-1e-5 4.88e-4,-1e-5 3.477624,-0.0838 6.575316,-3.0052 6.710817,-6.75373"
           id="path2494"
           inkscape:connector-curvature="0" />
        <path
           style="opacity:0.97000002;fill:#506f9d;fill-opacity:1;stroke:none;stroke-width:2.33340621;stroke-miterlimit:4;stroke-dasharray:none"
           d="m -4.9714961,110.63058 c 0.5576602,-2.04418 0.2623607,-4.21179 -0.8751827,-6.03677 -1.1360547,-1.82257 -3.0210651,-3.14652 -5.2329412,-3.62295 2.3e-5,0 -0.0014,-3.1e-4 -0.0014,-3e-4 -2.198285,-0.47313 -4.471228,-0.0528 -6.269255,1.14725 -3.74e-4,2.5e-4 -7.51e-4,5.1e-4 -0.0011,7.5e-4 -1.800625,1.20221 -2.949717,3.0625 -3.27543,5.14204 -6.7e-5,4.3e-4 -1.35e-4,8.6e-4 -1.49e-4,9.5e-4 -0.324477,2.07391 0.191874,4.20026 1.351158,5.9071 0,0 3.66e-4,5.3e-4 3.66e-4,5.3e-4 1.161971,1.71051 2.890883,2.89262 4.846801,3.31587 2.14e-4,5e-5 4.27e-4,9e-5 6.41e-4,1.4e-4 3.995861,0.86432 8.303937,-1.62974 9.4565845,-5.85496"
           id="path2496"
           inkscape:connector-curvature="0" />
        <path
           style="opacity:0.97000002;fill:#38598a;fill-opacity:1;stroke:none;stroke-width:2.33340621;stroke-miterlimit:4;stroke-dasharray:none"
           d="m 24.252163,121.44637 c 1.006798,-2.18786 1.087374,-4.68234 0.168911,-6.949 -0.917634,-2.26461 -2.757232,-4.10314 -5.108762,-5.06718 2.1e-5,1e-5 -0.0016,-6.6e-4 -0.0016,-6.5e-4 -2.344854,-0.96082 -4.956109,-0.95088 -7.209609,0.0208 -5.17e-4,2.3e-4 -10e-4,4.5e-4 -0.0015,4.8e-4 -2.2566253,0.97358 -3.9390206,2.81307 -4.7463882,5.07441 8.712e-4,-0.002 -0.00152,0.004 -6.459e-4,0.002 -0.8049992,2.256 -0.6773666,4.74767 0.2775936,6.90793 0,0 3.307e-4,7.3e-4 3.307e-4,7.3e-4 0.9568651,2.16405 2.6758268,3.85316 4.8118318,4.73112 2.55e-4,10e-5 5.1e-4,2.1e-4 7.66e-4,3.1e-4 4.38474,1.80179 9.718536,-0.17792 11.809016,-4.72072"
           id="path2498"
           inkscape:connector-curvature="0" />
      </g>
      <g
         id="g2516"
         transform="matrix(0.16440437,-0.28475673,-0.28475673,-0.16440437,237.92114,127.55086)"
         style="stroke-width:4.40958691"
         inkscape:transform-center-x="-25.722834"
         inkscape:transform-center-y="-27.162159">
        <path
           style="opacity:0.97000002;fill:#214478;fill-opacity:1;stroke:none;stroke-width:2.33340621;stroke-miterlimit:4;stroke-dasharray:none"
           d="m 51.803291,136.12047 c 2.878234,-4.81766 1.240387,-11.15201 -3.934409,-14.04251 -5.19464,-2.90159 -11.462603,-0.96802 -14.030088,4.03688 -2.563975,4.99804 -0.62922,11.11683 4.098541,13.75427 4.748023,2.64875 10.983781,1.07562 13.865956,-3.74864 z"
           id="path2502"
           inkscape:connector-curvature="0" />
        <path
           style="opacity:0.97000002;fill:#afc6e9;fill-opacity:1;stroke:none;stroke-width:2.33340621;stroke-miterlimit:4;stroke-dasharray:none"
           d="m -123.46929,134.01657 c -1.01199,-1.60663 -3.15471,-2.07727 -4.78788,-1.02401 -1.63223,1.05265 -2.08747,3.1974 -1.04522,4.78163 1.04245,1.58455 3.17887,2.01912 4.76817,0.99586 1.58834,-1.02265 2.07672,-3.14717 1.06493,-4.75348 z"
           id="path2504"
           inkscape:connector-curvature="0" />
        <path
           style="opacity:0.97000002;fill:#97b0d6;fill-opacity:1;stroke:none;stroke-width:2.33340621;stroke-miterlimit:4;stroke-dasharray:none"
           d="m -96.129596,118.99897 c -0.51782,-1.12686 -1.45454,-1.95649 -2.587482,-2.35015 -1.131656,-0.39322 -2.416152,-0.33495 -3.567842,0.22746 0,0 -3.1e-4,1.5e-4 -3.1e-4,1.5e-4 -1.12252,0.54828 -1.97694,1.51304 -2.37073,2.67226 -3e-5,1e-4 -7e-5,2.1e-4 -1e-4,3.1e-4 -0.39391,1.15983 -0.29336,2.41222 0.26149,3.48633 6e-5,1e-4 1e-4,2e-4 1.5e-4,2.9e-4 0.55454,1.07329 1.51653,1.88112 2.65953,2.25708 0,0 1.6e-4,5e-5 1.6e-4,5e-5 1.14372,0.37615 2.380993,0.29237 3.45018,-0.23051 5.1e-5,-2e-5 1.02e-4,-5e-5 1.53e-4,-7e-5 2.206941,-1.07941 3.204669,-3.77851 2.154801,-6.0632 z"
           id="path2506"
           inkscape:connector-curvature="0" />
        <path
           style="opacity:0.97000002;fill:#7f9ac3;fill-opacity:1;stroke:none;stroke-width:2.33340621;stroke-miterlimit:4;stroke-dasharray:none"
           d="m -66.689902,108.79803 c -0.340979,-1.49525 -1.266426,-2.75499 -2.579095,-3.52245 -1.310512,-0.7662 -2.927316,-0.9913 -4.486025,-0.5657 -2.23e-4,6e-5 -4.46e-4,1.2e-4 -6.7e-4,1.9e-4 -1.53303,0.41877 -2.823276,1.42124 -3.572072,2.76569 0,0 -3.28e-4,5.8e-4 -3.28e-4,5.8e-4 -0.749322,1.34579 -0.889112,2.9076 -0.431789,4.34543 6.7e-5,2.2e-4 1.34e-4,4.3e-4 2.01e-4,6.4e-4 0.456812,1.43565 1.470045,2.63211 2.77838,3.34505 9.6e-5,5e-5 1.91e-4,10e-5 2.86e-4,1.5e-4 1.310058,0.71378 2.821482,0.89443 4.225067,0.51001 1.06e-4,-3e-5 2.13e-4,-6e-5 3.2e-4,-9e-5 2.87675,-0.78805 4.762694,-3.82317 4.065725,-6.8795 z"
           id="path2508"
           inkscape:connector-curvature="0" />
        <path
           style="opacity:0.97000002;fill:#6885b0;fill-opacity:1;stroke:none;stroke-width:2.33340621;stroke-miterlimit:4;stroke-dasharray:none"
           d="m -35.734297,105.79129 c 0.06588,-1.82252 -0.609627,-3.56898 -1.917115,-4.86278 -1.30515,-1.291476 -3.144017,-2.029239 -5.100889,-1.987665 -2.2e-5,0 -10e-4,2.1e-5 -10e-4,2.1e-5 -0.559536,0.01197 -1.110885,0.08782 -1.642493,0.223084 -1.304499,0.335744 -2.477433,1.0253 -3.369859,1.99285 -2.3e-4,2.4e-4 -4.59e-4,4.9e-4 -6.88e-4,7.4e-4 -1.259155,1.36557 -1.840044,3.14928 -1.690735,4.94791 2.7e-5,3.3e-4 5.4e-5,6.5e-4 8e-5,9.6e-4 0.149251,1.79476 1.010053,3.46098 2.319874,4.64979 1.2e-4,1.1e-4 2.4e-4,2.1e-4 3.6e-4,3.2e-4 0.932088,0.84585 2.04767,1.41219 3.221538,1.65689 0.480732,0.0986 0.972993,0.14353 1.469678,0.1316 -10e-7,0 4.89e-4,-1e-5 4.88e-4,-1e-5 3.477624,-0.0838 6.575316,-3.0052 6.710817,-6.75373"
           id="path2510"
           inkscape:connector-curvature="0" />
        <path
           style="opacity:0.97000002;fill:#506f9d;fill-opacity:1;stroke:none;stroke-width:2.33340621;stroke-miterlimit:4;stroke-dasharray:none"
           d="m -4.9714961,110.63058 c 0.5576602,-2.04418 0.2623607,-4.21179 -0.8751827,-6.03677 -1.1360547,-1.82257 -3.0210651,-3.14652 -5.2329412,-3.62295 2.3e-5,0 -0.0014,-3.1e-4 -0.0014,-3e-4 -2.198285,-0.47313 -4.471228,-0.0528 -6.269255,1.14725 -3.74e-4,2.5e-4 -7.51e-4,5.1e-4 -0.0011,7.5e-4 -1.800625,1.20221 -2.949717,3.0625 -3.27543,5.14204 -6.7e-5,4.3e-4 -1.35e-4,8.6e-4 -1.49e-4,9.5e-4 -0.324477,2.07391 0.191874,4.20026 1.351158,5.9071 0,0 3.66e-4,5.3e-4 3.66e-4,5.3e-4 1.161971,1.71051 2.890883,2.89262 4.846801,3.31587 2.14e-4,5e-5 4.27e-4,9e-5 6.41e-4,1.4e-4 3.995861,0.86432 8.303937,-1.62974 9.4565845,-5.85496"
           id="path2512"
           inkscape:connector-curvature="0" />
        <path
           style="opacity:0.97000002;fill:#38598a;fill-opacity:1;stroke:none;stroke-width:2.33340621;stroke-miterlimit:4;stroke-dasharray:none"
           d="m 24.252163,121.44637 c 1.006798,-2.18786 1.087374,-4.68234 0.168911,-6.949 -0.917634,-2.26461 -2.757232,-4.10314 -5.108762,-5.06718 2.1e-5,1e-5 -0.0016,-6.6e-4 -0.0016,-6.5e-4 -2.344854,-0.96082 -4.956109,-0.95088 -7.209609,0.0208 -5.17e-4,2.3e-4 -10e-4,4.5e-4 -0.0015,4.8e-4 -2.2566253,0.97358 -3.9390206,2.81307 -4.7463882,5.07441 8.712e-4,-0.002 -0.00152,0.004 -6.459e-4,0.002 -0.8049992,2.256 -0.6773666,4.74767 0.2775936,6.90793 0,0 3.307e-4,7.3e-4 3.307e-4,7.3e-4 0.9568651,2.16405 2.6758268,3.85316 4.8118318,4.73112 2.55e-4,10e-5 5.1e-4,2.1e-4 7.66e-4,3.1e-4 4.38474,1.80179 9.718536,-0.17792 11.809016,-4.72072"
           id="path2514"
           inkscape:connector-curvature="0" />
      </g>
      <g
         id="g2532"
         transform="matrix(0.28475673,-0.16440438,-0.16440438,-0.28475673,236.60835,164.43007)"
         style="stroke-width:4.40958691"
         inkscape:transform-center-x="-35.452306"
         inkscape:transform-center-y="-11.193972">
        <path
           style="opacity:0.97000002;fill:#214478;fill-opacity:1;stroke:none;stroke-width:2.33340621;stroke-miterlimit:4;stroke-dasharray:none"
           d="m 51.803291,136.12047 c 2.878234,-4.81766 1.240387,-11.15201 -3.934409,-14.04251 -5.19464,-2.90159 -11.462603,-0.96802 -14.030088,4.03688 -2.563975,4.99804 -0.62922,11.11683 4.098541,13.75427 4.748023,2.64875 10.983781,1.07562 13.865956,-3.74864 z"
           id="path2518"
           inkscape:connector-curvature="0" />
        <path
           style="opacity:0.97000002;fill:#afc6e9;fill-opacity:1;stroke:none;stroke-width:2.33340621;stroke-miterlimit:4;stroke-dasharray:none"
           d="m -123.46929,134.01657 c -1.01199,-1.60663 -3.15471,-2.07727 -4.78788,-1.02401 -1.63223,1.05265 -2.08747,3.1974 -1.04522,4.78163 1.04245,1.58455 3.17887,2.01912 4.76817,0.99586 1.58834,-1.02265 2.07672,-3.14717 1.06493,-4.75348 z"
           id="path2520"
           inkscape:connector-curvature="0" />
        <path
           style="opacity:0.97000002;fill:#97b0d6;fill-opacity:1;stroke:none;stroke-width:2.33340621;stroke-miterlimit:4;stroke-dasharray:none"
           d="m -96.129596,118.99897 c -0.51782,-1.12686 -1.45454,-1.95649 -2.587482,-2.35015 -1.131656,-0.39322 -2.416152,-0.33495 -3.567842,0.22746 0,0 -3.1e-4,1.5e-4 -3.1e-4,1.5e-4 -1.12252,0.54828 -1.97694,1.51304 -2.37073,2.67226 -3e-5,1e-4 -7e-5,2.1e-4 -1e-4,3.1e-4 -0.39391,1.15983 -0.29336,2.41222 0.26149,3.48633 6e-5,1e-4 1e-4,2e-4 1.5e-4,2.9e-4 0.55454,1.07329 1.51653,1.88112 2.65953,2.25708 0,0 1.6e-4,5e-5 1.6e-4,5e-5 1.14372,0.37615 2.380993,0.29237 3.45018,-0.23051 5.1e-5,-2e-5 1.02e-4,-5e-5 1.53e-4,-7e-5 2.206941,-1.07941 3.204669,-3.77851 2.154801,-6.0632 z"
           id="path2522"
           inkscape:connector-curvature="0" />
        <path
           style="opacity:0.97000002;fill:#7f9ac3;fill-opacity:1;stroke:none;stroke-width:2.33340621;stroke-miterlimit:4;stroke-dasharray:none"
           d="m -66.689902,108.79803 c -0.340979,-1.49525 -1.266426,-2.75499 -2.579095,-3.52245 -1.310512,-0.7662 -2.927316,-0.9913 -4.486025,-0.5657 -2.23e-4,6e-5 -4.46e-4,1.2e-4 -6.7e-4,1.9e-4 -1.53303,0.41877 -2.823276,1.42124 -3.572072,2.76569 0,0 -3.28e-4,5.8e-4 -3.28e-4,5.8e-4 -0.749322,1.34579 -0.889112,2.9076 -0.431789,4.34543 6.7e-5,2.2e-4 1.34e-4,4.3e-4 2.01e-4,6.4e-4 0.456812,1.43565 1.470045,2.63211 2.77838,3.34505 9.6e-5,5e-5 1.91e-4,10e-5 2.86e-4,1.5e-4 1.310058,0.71378 2.821482,0.89443 4.225067,0.51001 1.06e-4,-3e-5 2.13e-4,-6e-5 3.2e-4,-9e-5 2.87675,-0.78805 4.762694,-3.82317 4.065725,-6.8795 z"
           id="path2524"
           inkscape:connector-curvature="0" />
        <path
           style="opacity:0.97000002;fill:#6885b0;fill-opacity:1;stroke:none;stroke-width:2.33340621;stroke-miterlimit:4;stroke-dasharray:none"
           d="m -35.734297,105.79129 c 0.06588,-1.82252 -0.609627,-3.56898 -1.917115,-4.86278 -1.30515,-1.291476 -3.144017,-2.029239 -5.100889,-1.987665 -2.2e-5,0 -10e-4,2.1e-5 -10e-4,2.1e-5 -0.559536,0.01197 -1.110885,0.08782 -1.642493,0.223084 -1.304499,0.335744 -2.477433,1.0253 -3.369859,1.99285 -2.3e-4,2.4e-4 -4.59e-4,4.9e-4 -6.88e-4,7.4e-4 -1.259155,1.36557 -1.840044,3.14928 -1.690735,4.94791 2.7e-5,3.3e-4 5.4e-5,6.5e-4 8e-5,9.6e-4 0.149251,1.79476 1.010053,3.46098 2.319874,4.64979 1.2e-4,1.1e-4 2.4e-4,2.1e-4 3.6e-4,3.2e-4 0.932088,0.84585 2.04767,1.41219 3.221538,1.65689 0.480732,0.0986 0.972993,0.14353 1.469678,0.1316 -10e-7,0 4.89e-4,-1e-5 4.88e-4,-1e-5 3.477624,-0.0838 6.575316,-3.0052 6.710817,-6.75373"
           id="path2526"
           inkscape:connector-curvature="0" />
        <path
           style="opacity:0.97000002;fill:#506f9d;fill-opacity:1;stroke:none;stroke-width:2.33340621;stroke-miterlimit:4;stroke-dasharray:none"
           d="m -4.9714961,110.63058 c 0.5576602,-2.04418 0.2623607,-4.21179 -0.8751827,-6.03677 -1.1360547,-1.82257 -3.0210651,-3.14652 -5.2329412,-3.62295 2.3e-5,0 -0.0014,-3.1e-4 -0.0014,-3e-4 -2.198285,-0.47313 -4.471228,-0.0528 -6.269255,1.14725 -3.74e-4,2.5e-4 -7.51e-4,5.1e-4 -0.0011,7.5e-4 -1.800625,1.20221 -2.949717,3.0625 -3.27543,5.14204 -6.7e-5,4.3e-4 -1.35e-4,8.6e-4 -1.49e-4,9.5e-4 -0.324477,2.07391 0.191874,4.20026 1.351158,5.9071 0,0 3.66e-4,5.3e-4 3.66e-4,5.3e-4 1.161971,1.71051 2.890883,2.89262 4.846801,3.31587 2.14e-4,5e-5 4.27e-4,9e-5 6.41e-4,1.4e-4 3.995861,0.86432 8.303937,-1.62974 9.4565845,-5.85496"
           id="path2528"
           inkscape:connector-curvature="0" />
        <path
           style="opacity:0.97000002;fill:#38598a;fill-opacity:1;stroke:none;stroke-width:2.33340621;stroke-miterlimit:4;stroke-dasharray:none"
           d="m 24.252163,121.44637 c 1.006798,-2.18786 1.087374,-4.68234 0.168911,-6.949 -0.917634,-2.26461 -2.757232,-4.10314 -5.108762,-5.06718 2.1e-5,1e-5 -0.0016,-6.6e-4 -0.0016,-6.5e-4 -2.344854,-0.96082 -4.956109,-0.95088 -7.209609,0.0208 -5.17e-4,2.3e-4 -10e-4,4.5e-4 -0.0015,4.8e-4 -2.2566253,0.97358 -3.9390206,2.81307 -4.7463882,5.07441 8.712e-4,-0.002 -0.00152,0.004 -6.459e-4,0.002 -0.8049992,2.256 -0.6773666,4.74767 0.2775936,6.90793 0,0 3.307e-4,7.3e-4 3.307e-4,7.3e-4 0.9568651,2.16405 2.6758268,3.85316 4.8118318,4.73112 2.55e-4,10e-5 5.1e-4,2.1e-4 7.66e-4,3.1e-4 4.38474,1.80179 9.718536,-0.17792 11.809016,-4.72072"
           id="path2530"
           inkscape:connector-curvature="0" />
      </g>
      <g
         id="g2548"
         transform="matrix(0.32880875,0,0,-0.32880875,217.03183,195.71201)"
         style="stroke-width:4.40958691"
         inkscape:transform-center-x="-35.983319"
         inkscape:transform-center-y="12.700002">
        <path
           style="opacity:0.97000002;fill:#214478;fill-opacity:1;stroke:none;stroke-width:2.33340621;stroke-miterlimit:4;stroke-dasharray:none"
           d="m 51.803291,136.12047 c 2.878234,-4.81766 1.240387,-11.15201 -3.934409,-14.04251 -5.19464,-2.90159 -11.462603,-0.96802 -14.030088,4.03688 -2.563975,4.99804 -0.62922,11.11683 4.098541,13.75427 4.748023,2.64875 10.983781,1.07562 13.865956,-3.74864 z"
           id="path2534"
           inkscape:connector-curvature="0" />
        <path
           style="opacity:0.97000002;fill:#afc6e9;fill-opacity:1;stroke:none;stroke-width:2.33340621;stroke-miterlimit:4;stroke-dasharray:none"
           d="m -123.46929,134.01657 c -1.01199,-1.60663 -3.15471,-2.07727 -4.78788,-1.02401 -1.63223,1.05265 -2.08747,3.1974 -1.04522,4.78163 1.04245,1.58455 3.17887,2.01912 4.76817,0.99586 1.58834,-1.02265 2.07672,-3.14717 1.06493,-4.75348 z"
           id="path2536"
           inkscape:connector-curvature="0" />
        <path
           style="opacity:0.97000002;fill:#97b0d6;fill-opacity:1;stroke:none;stroke-width:2.33340621;stroke-miterlimit:4;stroke-dasharray:none"
           d="m -96.129596,118.99897 c -0.51782,-1.12686 -1.45454,-1.95649 -2.587482,-2.35015 -1.131656,-0.39322 -2.416152,-0.33495 -3.567842,0.22746 0,0 -3.1e-4,1.5e-4 -3.1e-4,1.5e-4 -1.12252,0.54828 -1.97694,1.51304 -2.37073,2.67226 -3e-5,1e-4 -7e-5,2.1e-4 -1e-4,3.1e-4 -0.39391,1.15983 -0.29336,2.41222 0.26149,3.48633 6e-5,1e-4 1e-4,2e-4 1.5e-4,2.9e-4 0.55454,1.07329 1.51653,1.88112 2.65953,2.25708 0,0 1.6e-4,5e-5 1.6e-4,5e-5 1.14372,0.37615 2.380993,0.29237 3.45018,-0.23051 5.1e-5,-2e-5 1.02e-4,-5e-5 1.53e-4,-7e-5 2.206941,-1.07941 3.204669,-3.77851 2.154801,-6.0632 z"
           id="path2538"
           inkscape:connector-curvature="0" />
        <path
           style="opacity:0.97000002;fill:#7f9ac3;fill-opacity:1;stroke:none;stroke-width:2.33340621;stroke-miterlimit:4;stroke-dasharray:none"
           d="m -66.689902,108.79803 c -0.340979,-1.49525 -1.266426,-2.75499 -2.579095,-3.52245 -1.310512,-0.7662 -2.927316,-0.9913 -4.486025,-0.5657 -2.23e-4,6e-5 -4.46e-4,1.2e-4 -6.7e-4,1.9e-4 -1.53303,0.41877 -2.823276,1.42124 -3.572072,2.76569 0,0 -3.28e-4,5.8e-4 -3.28e-4,5.8e-4 -0.749322,1.34579 -0.889112,2.9076 -0.431789,4.34543 6.7e-5,2.2e-4 1.34e-4,4.3e-4 2.01e-4,6.4e-4 0.456812,1.43565 1.470045,2.63211 2.77838,3.34505 9.6e-5,5e-5 1.91e-4,10e-5 2.86e-4,1.5e-4 1.310058,0.71378 2.821482,0.89443 4.225067,0.51001 1.06e-4,-3e-5 2.13e-4,-6e-5 3.2e-4,-9e-5 2.87675,-0.78805 4.762694,-3.82317 4.065725,-6.8795 z"
           id="path2540"
           inkscape:connector-curvature="0" />
        <path
           style="opacity:0.97000002;fill:#6885b0;fill-opacity:1;stroke:none;stroke-width:2.33340621;stroke-miterlimit:4;stroke-dasharray:none"
           d="m -35.734297,105.79129 c 0.06588,-1.82252 -0.609627,-3.56898 -1.917115,-4.86278 -1.30515,-1.291476 -3.144017,-2.029239 -5.100889,-1.987665 -2.2e-5,0 -10e-4,2.1e-5 -10e-4,2.1e-5 -0.559536,0.01197 -1.110885,0.08782 -1.642493,0.223084 -1.304499,0.335744 -2.477433,1.0253 -3.369859,1.99285 -2.3e-4,2.4e-4 -4.59e-4,4.9e-4 -6.88e-4,7.4e-4 -1.259155,1.36557 -1.840044,3.14928 -1.690735,4.94791 2.7e-5,3.3e-4 5.4e-5,6.5e-4 8e-5,9.6e-4 0.149251,1.79476 1.010053,3.46098 2.319874,4.64979 1.2e-4,1.1e-4 2.4e-4,2.1e-4 3.6e-4,3.2e-4 0.932088,0.84585 2.04767,1.41219 3.221538,1.65689 0.480732,0.0986 0.972993,0.14353 1.469678,0.1316 -10e-7,0 4.89e-4,-1e-5 4.88e-4,-1e-5 3.477624,-0.0838 6.575316,-3.0052 6.710817,-6.75373"
           id="path2542"
           inkscape:connector-curvature="0" />
        <path
           style="opacity:0.97000002;fill:#506f9d;fill-opacity:1;stroke:none;stroke-width:2.33340621;stroke-miterlimit:4;stroke-dasharray:none"
           d="m -4.9714961,110.63058 c 0.5576602,-2.04418 0.2623607,-4.21179 -0.8751827,-6.03677 -1.1360547,-1.82257 -3.0210651,-3.14652 -5.2329412,-3.62295 2.3e-5,0 -0.0014,-3.1e-4 -0.0014,-3e-4 -2.198285,-0.47313 -4.471228,-0.0528 -6.269255,1.14725 -3.74e-4,2.5e-4 -7.51e-4,5.1e-4 -0.0011,7.5e-4 -1.800625,1.20221 -2.949717,3.0625 -3.27543,5.14204 -6.7e-5,4.3e-4 -1.35e-4,8.6e-4 -1.49e-4,9.5e-4 -0.324477,2.07391 0.191874,4.20026 1.351158,5.9071 0,0 3.66e-4,5.3e-4 3.66e-4,5.3e-4 1.161971,1.71051 2.890883,2.89262 4.846801,3.31587 2.14e-4,5e-5 4.27e-4,9e-5 6.41e-4,1.4e-4 3.995861,0.86432 8.303937,-1.62974 9.4565845,-5.85496"
           id="path2544"
           inkscape:connector-curvature="0" />
        <path
           style="opacity:0.97000002;fill:#38598a;fill-opacity:1;stroke:none;stroke-width:2.33340621;stroke-miterlimit:4;stroke-dasharray:none"
           d="m 24.252163,121.44637 c 1.006798,-2.18786 1.087374,-4.68234 0.168911,-6.949 -0.917634,-2.26461 -2.757232,-4.10314 -5.108762,-5.06718 2.1e-5,1e-5 -0.0016,-6.6e-4 -0.0016,-6.5e-4 -2.344854,-0.96082 -4.956109,-0.95088 -7.209609,0.0208 -5.17e-4,2.3e-4 -10e-4,4.5e-4 -0.0015,4.8e-4 -2.2566253,0.97358 -3.9390206,2.81307 -4.7463882,5.07441 8.712e-4,-0.002 -0.00152,0.004 -6.459e-4,0.002 -0.8049992,2.256 -0.6773666,4.74767 0.2775936,6.90793 0,0 3.307e-4,7.3e-4 3.307e-4,7.3e-4 0.9568651,2.16405 2.6758268,3.85316 4.8118318,4.73112 2.55e-4,10e-5 5.1e-4,2.1e-4 7.66e-4,3.1e-4 4.38474,1.80179 9.718536,-0.17792 11.809016,-4.72072"
           id="path2546"
           inkscape:connector-curvature="0" />
      </g>
      <g
         id="g2564"
         transform="matrix(0.28475673,0.16440437,0.16440437,-0.28475673,184.4371,213.0147)"
         style="stroke-width:4.40958691"
         inkscape:transform-center-x="-27.162152"
         inkscape:transform-center-y="25.722836">
        <path
           style="opacity:0.97000002;fill:#214478;fill-opacity:1;stroke:none;stroke-width:2.33340621;stroke-miterlimit:4;stroke-dasharray:none"
           d="m 51.803291,136.12047 c 2.878234,-4.81766 1.240387,-11.15201 -3.934409,-14.04251 -5.19464,-2.90159 -11.462603,-0.96802 -14.030088,4.03688 -2.563975,4.99804 -0.62922,11.11683 4.098541,13.75427 4.748023,2.64875 10.983781,1.07562 13.865956,-3.74864 z"
           id="path2550"
           inkscape:connector-curvature="0" />
        <path
           style="opacity:0.97000002;fill:#afc6e9;fill-opacity:1;stroke:none;stroke-width:2.33340621;stroke-miterlimit:4;stroke-dasharray:none"
           d="m -123.46929,134.01657 c -1.01199,-1.60663 -3.15471,-2.07727 -4.78788,-1.02401 -1.63223,1.05265 -2.08747,3.1974 -1.04522,4.78163 1.04245,1.58455 3.17887,2.01912 4.76817,0.99586 1.58834,-1.02265 2.07672,-3.14717 1.06493,-4.75348 z"
           id="path2552"
           inkscape:connector-curvature="0" />
        <path
           style="opacity:0.97000002;fill:#97b0d6;fill-opacity:1;stroke:none;stroke-width:2.33340621;stroke-miterlimit:4;stroke-dasharray:none"
           d="m -96.129596,118.99897 c -0.51782,-1.12686 -1.45454,-1.95649 -2.587482,-2.35015 -1.131656,-0.39322 -2.416152,-0.33495 -3.567842,0.22746 0,0 -3.1e-4,1.5e-4 -3.1e-4,1.5e-4 -1.12252,0.54828 -1.97694,1.51304 -2.37073,2.67226 -3e-5,1e-4 -7e-5,2.1e-4 -1e-4,3.1e-4 -0.39391,1.15983 -0.29336,2.41222 0.26149,3.48633 6e-5,1e-4 1e-4,2e-4 1.5e-4,2.9e-4 0.55454,1.07329 1.51653,1.88112 2.65953,2.25708 0,0 1.6e-4,5e-5 1.6e-4,5e-5 1.14372,0.37615 2.380993,0.29237 3.45018,-0.23051 5.1e-5,-2e-5 1.02e-4,-5e-5 1.53e-4,-7e-5 2.206941,-1.07941 3.204669,-3.77851 2.154801,-6.0632 z"
           id="path2554"
           inkscape:connector-curvature="0" />
        <path
           style="opacity:0.97000002;fill:#7f9ac3;fill-opacity:1;stroke:none;stroke-width:2.33340621;stroke-miterlimit:4;stroke-dasharray:none"
           d="m -66.689902,108.79803 c -0.340979,-1.49525 -1.266426,-2.75499 -2.579095,-3.52245 -1.310512,-0.7662 -2.927316,-0.9913 -4.486025,-0.5657 -2.23e-4,6e-5 -4.46e-4,1.2e-4 -6.7e-4,1.9e-4 -1.53303,0.41877 -2.823276,1.42124 -3.572072,2.76569 0,0 -3.28e-4,5.8e-4 -3.28e-4,5.8e-4 -0.749322,1.34579 -0.889112,2.9076 -0.431789,4.34543 6.7e-5,2.2e-4 1.34e-4,4.3e-4 2.01e-4,6.4e-4 0.456812,1.43565 1.470045,2.63211 2.77838,3.34505 9.6e-5,5e-5 1.91e-4,10e-5 2.86e-4,1.5e-4 1.310058,0.71378 2.821482,0.89443 4.225067,0.51001 1.06e-4,-3e-5 2.13e-4,-6e-5 3.2e-4,-9e-5 2.87675,-0.78805 4.762694,-3.82317 4.065725,-6.8795 z"
           id="path2556"
           inkscape:connector-curvature="0" />
        <path
           style="opacity:0.97000002;fill:#6885b0;fill-opacity:1;stroke:none;stroke-width:2.33340621;stroke-miterlimit:4;stroke-dasharray:none"
           d="m -35.734297,105.79129 c 0.06588,-1.82252 -0.609627,-3.56898 -1.917115,-4.86278 -1.30515,-1.291476 -3.144017,-2.029239 -5.100889,-1.987665 -2.2e-5,0 -10e-4,2.1e-5 -10e-4,2.1e-5 -0.559536,0.01197 -1.110885,0.08782 -1.642493,0.223084 -1.304499,0.335744 -2.477433,1.0253 -3.369859,1.99285 -2.3e-4,2.4e-4 -4.59e-4,4.9e-4 -6.88e-4,7.4e-4 -1.259155,1.36557 -1.840044,3.14928 -1.690735,4.94791 2.7e-5,3.3e-4 5.4e-5,6.5e-4 8e-5,9.6e-4 0.149251,1.79476 1.010053,3.46098 2.319874,4.64979 1.2e-4,1.1e-4 2.4e-4,2.1e-4 3.6e-4,3.2e-4 0.932088,0.84585 2.04767,1.41219 3.221538,1.65689 0.480732,0.0986 0.972993,0.14353 1.469678,0.1316 -10e-7,0 4.89e-4,-1e-5 4.88e-4,-1e-5 3.477624,-0.0838 6.575316,-3.0052 6.710817,-6.75373"
           id="path2558"
           inkscape:connector-curvature="0" />
        <path
           style="opacity:0.97000002;fill:#506f9d;fill-opacity:1;stroke:none;stroke-width:2.33340621;stroke-miterlimit:4;stroke-dasharray:none"
           d="m -4.9714961,110.63058 c 0.5576602,-2.04418 0.2623607,-4.21179 -0.8751827,-6.03677 -1.1360547,-1.82257 -3.0210651,-3.14652 -5.2329412,-3.62295 2.3e-5,0 -0.0014,-3.1e-4 -0.0014,-3e-4 -2.198285,-0.47313 -4.471228,-0.0528 -6.269255,1.14725 -3.74e-4,2.5e-4 -7.51e-4,5.1e-4 -0.0011,7.5e-4 -1.800625,1.20221 -2.949717,3.0625 -3.27543,5.14204 -6.7e-5,4.3e-4 -1.35e-4,8.6e-4 -1.49e-4,9.5e-4 -0.324477,2.07391 0.191874,4.20026 1.351158,5.9071 0,0 3.66e-4,5.3e-4 3.66e-4,5.3e-4 1.161971,1.71051 2.890883,2.89262 4.846801,3.31587 2.14e-4,5e-5 4.27e-4,9e-5 6.41e-4,1.4e-4 3.995861,0.86432 8.303937,-1.62974 9.4565845,-5.85496"
           id="path2560"
           inkscape:connector-curvature="0" />
        <path
           style="opacity:0.97000002;fill:#38598a;fill-opacity:1;stroke:none;stroke-width:2.33340621;stroke-miterlimit:4;stroke-dasharray:none"
           d="m 24.252163,121.44637 c 1.006798,-2.18786 1.087374,-4.68234 0.168911,-6.949 -0.917634,-2.26461 -2.757232,-4.10314 -5.108762,-5.06718 2.1e-5,1e-5 -0.0016,-6.6e-4 -0.0016,-6.5e-4 -2.344854,-0.96082 -4.956109,-0.95088 -7.209609,0.0208 -5.17e-4,2.3e-4 -10e-4,4.5e-4 -0.0015,4.8e-4 -2.2566253,0.97358 -3.9390206,2.81307 -4.7463882,5.07441 8.712e-4,-0.002 -0.00152,0.004 -6.459e-4,0.002 -0.8049992,2.256 -0.6773666,4.74767 0.2775936,6.90793 0,0 3.307e-4,7.3e-4 3.307e-4,7.3e-4 0.9568651,2.16405 2.6758268,3.85316 4.8118318,4.73112 2.55e-4,10e-5 5.1e-4,2.1e-4 7.66e-4,3.1e-4 4.38474,1.80179 9.718536,-0.17792 11.809016,-4.72072"
           id="path2562"
           inkscape:connector-curvature="0" />
      </g>
      <g
         id="g2580"
         transform="matrix(0.16440438,0.28475673,0.28475673,-0.16440438,147.55789,211.7019)"
         style="stroke-width:4.40958691"
         inkscape:transform-center-x="-11.193965"
         inkscape:transform-center-y="35.452298">
        <path
           style="opacity:0.97000002;fill:#214478;fill-opacity:1;stroke:none;stroke-width:2.33340621;stroke-miterlimit:4;stroke-dasharray:none"
           d="m 51.803291,136.12047 c 2.878234,-4.81766 1.240387,-11.15201 -3.934409,-14.04251 -5.19464,-2.90159 -11.462603,-0.96802 -14.030088,4.03688 -2.563975,4.99804 -0.62922,11.11683 4.098541,13.75427 4.748023,2.64875 10.983781,1.07562 13.865956,-3.74864 z"
           id="path2566"
           inkscape:connector-curvature="0" />
        <path
           style="opacity:0.97000002;fill:#afc6e9;fill-opacity:1;stroke:none;stroke-width:2.33340621;stroke-miterlimit:4;stroke-dasharray:none"
           d="m -123.46929,134.01657 c -1.01199,-1.60663 -3.15471,-2.07727 -4.78788,-1.02401 -1.63223,1.05265 -2.08747,3.1974 -1.04522,4.78163 1.04245,1.58455 3.17887,2.01912 4.76817,0.99586 1.58834,-1.02265 2.07672,-3.14717 1.06493,-4.75348 z"
           id="path2568"
           inkscape:connector-curvature="0" />
        <path
           style="opacity:0.97000002;fill:#97b0d6;fill-opacity:1;stroke:none;stroke-width:2.33340621;stroke-miterlimit:4;stroke-dasharray:none"
           d="m -96.129596,118.99897 c -0.51782,-1.12686 -1.45454,-1.95649 -2.587482,-2.35015 -1.131656,-0.39322 -2.416152,-0.33495 -3.567842,0.22746 0,0 -3.1e-4,1.5e-4 -3.1e-4,1.5e-4 -1.12252,0.54828 -1.97694,1.51304 -2.37073,2.67226 -3e-5,1e-4 -7e-5,2.1e-4 -1e-4,3.1e-4 -0.39391,1.15983 -0.29336,2.41222 0.26149,3.48633 6e-5,1e-4 1e-4,2e-4 1.5e-4,2.9e-4 0.55454,1.07329 1.51653,1.88112 2.65953,2.25708 0,0 1.6e-4,5e-5 1.6e-4,5e-5 1.14372,0.37615 2.380993,0.29237 3.45018,-0.23051 5.1e-5,-2e-5 1.02e-4,-5e-5 1.53e-4,-7e-5 2.206941,-1.07941 3.204669,-3.77851 2.154801,-6.0632 z"
           id="path2570"
           inkscape:connector-curvature="0" />
        <path
           style="opacity:0.97000002;fill:#7f9ac3;fill-opacity:1;stroke:none;stroke-width:2.33340621;stroke-miterlimit:4;stroke-dasharray:none"
           d="m -66.689902,108.79803 c -0.340979,-1.49525 -1.266426,-2.75499 -2.579095,-3.52245 -1.310512,-0.7662 -2.927316,-0.9913 -4.486025,-0.5657 -2.23e-4,6e-5 -4.46e-4,1.2e-4 -6.7e-4,1.9e-4 -1.53303,0.41877 -2.823276,1.42124 -3.572072,2.76569 0,0 -3.28e-4,5.8e-4 -3.28e-4,5.8e-4 -0.749322,1.34579 -0.889112,2.9076 -0.431789,4.34543 6.7e-5,2.2e-4 1.34e-4,4.3e-4 2.01e-4,6.4e-4 0.456812,1.43565 1.470045,2.63211 2.77838,3.34505 9.6e-5,5e-5 1.91e-4,10e-5 2.86e-4,1.5e-4 1.310058,0.71378 2.821482,0.89443 4.225067,0.51001 1.06e-4,-3e-5 2.13e-4,-6e-5 3.2e-4,-9e-5 2.87675,-0.78805 4.762694,-3.82317 4.065725,-6.8795 z"
           id="path2572"
           inkscape:connector-curvature="0" />
        <path
           style="opacity:0.97000002;fill:#6885b0;fill-opacity:1;stroke:none;stroke-width:2.33340621;stroke-miterlimit:4;stroke-dasharray:none"
           d="m -35.734297,105.79129 c 0.06588,-1.82252 -0.609627,-3.56898 -1.917115,-4.86278 -1.30515,-1.291476 -3.144017,-2.029239 -5.100889,-1.987665 -2.2e-5,0 -10e-4,2.1e-5 -10e-4,2.1e-5 -0.559536,0.01197 -1.110885,0.08782 -1.642493,0.223084 -1.304499,0.335744 -2.477433,1.0253 -3.369859,1.99285 -2.3e-4,2.4e-4 -4.59e-4,4.9e-4 -6.88e-4,7.4e-4 -1.259155,1.36557 -1.840044,3.14928 -1.690735,4.94791 2.7e-5,3.3e-4 5.4e-5,6.5e-4 8e-5,9.6e-4 0.149251,1.79476 1.010053,3.46098 2.319874,4.64979 1.2e-4,1.1e-4 2.4e-4,2.1e-4 3.6e-4,3.2e-4 0.932088,0.84585 2.04767,1.41219 3.221538,1.65689 0.480732,0.0986 0.972993,0.14353 1.469678,0.1316 -10e-7,0 4.89e-4,-1e-5 4.88e-4,-1e-5 3.477624,-0.0838 6.575316,-3.0052 6.710817,-6.75373"
           id="path2574"
           inkscape:connector-curvature="0" />
        <path
           style="opacity:0.97000002;fill:#506f9d;fill-opacity:1;stroke:none;stroke-width:2.33340621;stroke-miterlimit:4;stroke-dasharray:none"
           d="m -4.9714961,110.63058 c 0.5576602,-2.04418 0.2623607,-4.21179 -0.8751827,-6.03677 -1.1360547,-1.82257 -3.0210651,-3.14652 -5.2329412,-3.62295 2.3e-5,0 -0.0014,-3.1e-4 -0.0014,-3e-4 -2.198285,-0.47313 -4.471228,-0.0528 -6.269255,1.14725 -3.74e-4,2.5e-4 -7.51e-4,5.1e-4 -0.0011,7.5e-4 -1.800625,1.20221 -2.949717,3.0625 -3.27543,5.14204 -6.7e-5,4.3e-4 -1.35e-4,8.6e-4 -1.49e-4,9.5e-4 -0.324477,2.07391 0.191874,4.20026 1.351158,5.9071 0,0 3.66e-4,5.3e-4 3.66e-4,5.3e-4 1.161971,1.71051 2.890883,2.89262 4.846801,3.31587 2.14e-4,5e-5 4.27e-4,9e-5 6.41e-4,1.4e-4 3.995861,0.86432 8.303937,-1.62974 9.4565845,-5.85496"
           id="path2576"
           inkscape:connector-curvature="0" />
        <path
           style="opacity:0.97000002;fill:#38598a;fill-opacity:1;stroke:none;stroke-width:2.33340621;stroke-miterlimit:4;stroke-dasharray:none"
           d="m 24.252163,121.44637 c 1.006798,-2.18786 1.087374,-4.68234 0.168911,-6.949 -0.917634,-2.26461 -2.757232,-4.10314 -5.108762,-5.06718 2.1e-5,1e-5 -0.0016,-6.6e-4 -0.0016,-6.5e-4 -2.344854,-0.96082 -4.956109,-0.95088 -7.209609,0.0208 -5.17e-4,2.3e-4 -10e-4,4.5e-4 -0.0015,4.8e-4 -2.2566253,0.97358 -3.9390206,2.81307 -4.7463882,5.07441 8.712e-4,-0.002 -0.00152,0.004 -6.459e-4,0.002 -0.8049992,2.256 -0.6773666,4.74767 0.2775936,6.90793 0,0 3.307e-4,7.3e-4 3.307e-4,7.3e-4 0.9568651,2.16405 2.6758268,3.85316 4.8118318,4.73112 2.55e-4,10e-5 5.1e-4,2.1e-4 7.66e-4,3.1e-4 4.38474,1.80179 9.718536,-0.17792 11.809016,-4.72072"
           id="path2578"
           inkscape:connector-curvature="0" />
      </g>
      <g
         id="g2596"
         transform="matrix(0,0.32880875,0.32880875,0,116.27596,192.12538)"
         style="stroke-width:4.40958691"
         inkscape:transform-center-x="12.699999"
         inkscape:transform-center-y="35.983311">
        <path
           style="opacity:0.97000002;fill:#214478;fill-opacity:1;stroke:none;stroke-width:2.33340621;stroke-miterlimit:4;stroke-dasharray:none"
           d="m 51.803291,136.12047 c 2.878234,-4.81766 1.240387,-11.15201 -3.934409,-14.04251 -5.19464,-2.90159 -11.462603,-0.96802 -14.030088,4.03688 -2.563975,4.99804 -0.62922,11.11683 4.098541,13.75427 4.748023,2.64875 10.983781,1.07562 13.865956,-3.74864 z"
           id="path2582"
           inkscape:connector-curvature="0" />
        <path
           style="opacity:0.97000002;fill:#afc6e9;fill-opacity:1;stroke:none;stroke-width:2.33340621;stroke-miterlimit:4;stroke-dasharray:none"
           d="m -123.46929,134.01657 c -1.01199,-1.60663 -3.15471,-2.07727 -4.78788,-1.02401 -1.63223,1.05265 -2.08747,3.1974 -1.04522,4.78163 1.04245,1.58455 3.17887,2.01912 4.76817,0.99586 1.58834,-1.02265 2.07672,-3.14717 1.06493,-4.75348 z"
           id="path2584"
           inkscape:connector-curvature="0" />
        <path
           style="opacity:0.97000002;fill:#97b0d6;fill-opacity:1;stroke:none;stroke-width:2.33340621;stroke-miterlimit:4;stroke-dasharray:none"
           d="m -96.129596,118.99897 c -0.51782,-1.12686 -1.45454,-1.95649 -2.587482,-2.35015 -1.131656,-0.39322 -2.416152,-0.33495 -3.567842,0.22746 0,0 -3.1e-4,1.5e-4 -3.1e-4,1.5e-4 -1.12252,0.54828 -1.97694,1.51304 -2.37073,2.67226 -3e-5,1e-4 -7e-5,2.1e-4 -1e-4,3.1e-4 -0.39391,1.15983 -0.29336,2.41222 0.26149,3.48633 6e-5,1e-4 1e-4,2e-4 1.5e-4,2.9e-4 0.55454,1.07329 1.51653,1.88112 2.65953,2.25708 0,0 1.6e-4,5e-5 1.6e-4,5e-5 1.14372,0.37615 2.380993,0.29237 3.45018,-0.23051 5.1e-5,-2e-5 1.02e-4,-5e-5 1.53e-4,-7e-5 2.206941,-1.07941 3.204669,-3.77851 2.154801,-6.0632 z"
           id="path2586"
           inkscape:connector-curvature="0" />
        <path
           style="opacity:0.97000002;fill:#7f9ac3;fill-opacity:1;stroke:none;stroke-width:2.33340621;stroke-miterlimit:4;stroke-dasharray:none"
           d="m -66.689902,108.79803 c -0.340979,-1.49525 -1.266426,-2.75499 -2.579095,-3.52245 -1.310512,-0.7662 -2.927316,-0.9913 -4.486025,-0.5657 -2.23e-4,6e-5 -4.46e-4,1.2e-4 -6.7e-4,1.9e-4 -1.53303,0.41877 -2.823276,1.42124 -3.572072,2.76569 0,0 -3.28e-4,5.8e-4 -3.28e-4,5.8e-4 -0.749322,1.34579 -0.889112,2.9076 -0.431789,4.34543 6.7e-5,2.2e-4 1.34e-4,4.3e-4 2.01e-4,6.4e-4 0.456812,1.43565 1.470045,2.63211 2.77838,3.34505 9.6e-5,5e-5 1.91e-4,10e-5 2.86e-4,1.5e-4 1.310058,0.71378 2.821482,0.89443 4.225067,0.51001 1.06e-4,-3e-5 2.13e-4,-6e-5 3.2e-4,-9e-5 2.87675,-0.78805 4.762694,-3.82317 4.065725,-6.8795 z"
           id="path2588"
           inkscape:connector-curvature="0" />
        <path
           style="opacity:0.97000002;fill:#6885b0;fill-opacity:1;stroke:none;stroke-width:2.33340621;stroke-miterlimit:4;stroke-dasharray:none"
           d="m -35.734297,105.79129 c 0.06588,-1.82252 -0.609627,-3.56898 -1.917115,-4.86278 -1.30515,-1.291476 -3.144017,-2.029239 -5.100889,-1.987665 -2.2e-5,0 -10e-4,2.1e-5 -10e-4,2.1e-5 -0.559536,0.01197 -1.110885,0.08782 -1.642493,0.223084 -1.304499,0.335744 -2.477433,1.0253 -3.369859,1.99285 -2.3e-4,2.4e-4 -4.59e-4,4.9e-4 -6.88e-4,7.4e-4 -1.259155,1.36557 -1.840044,3.14928 -1.690735,4.94791 2.7e-5,3.3e-4 5.4e-5,6.5e-4 8e-5,9.6e-4 0.149251,1.79476 1.010053,3.46098 2.319874,4.64979 1.2e-4,1.1e-4 2.4e-4,2.1e-4 3.6e-4,3.2e-4 0.932088,0.84585 2.04767,1.41219 3.221538,1.65689 0.480732,0.0986 0.972993,0.14353 1.469678,0.1316 -10e-7,0 4.89e-4,-1e-5 4.88e-4,-1e-5 3.477624,-0.0838 6.575316,-3.0052 6.710817,-6.75373"
           id="path2590"
           inkscape:connector-curvature="0" />
        <path
           style="opacity:0.97000002;fill:#506f9d;fill-opacity:1;stroke:none;stroke-width:2.33340621;stroke-miterlimit:4;stroke-dasharray:none"
           d="m -4.9714961,110.63058 c 0.5576602,-2.04418 0.2623607,-4.21179 -0.8751827,-6.03677 -1.1360547,-1.82257 -3.0210651,-3.14652 -5.2329412,-3.62295 2.3e-5,0 -0.0014,-3.1e-4 -0.0014,-3e-4 -2.198285,-0.47313 -4.471228,-0.0528 -6.269255,1.14725 -3.74e-4,2.5e-4 -7.51e-4,5.1e-4 -0.0011,7.5e-4 -1.800625,1.20221 -2.949717,3.0625 -3.27543,5.14204 -6.7e-5,4.3e-4 -1.35e-4,8.6e-4 -1.49e-4,9.5e-4 -0.324477,2.07391 0.191874,4.20026 1.351158,5.9071 0,0 3.66e-4,5.3e-4 3.66e-4,5.3e-4 1.161971,1.71051 2.890883,2.89262 4.846801,3.31587 2.14e-4,5e-5 4.27e-4,9e-5 6.41e-4,1.4e-4 3.995861,0.86432 8.303937,-1.62974 9.4565845,-5.85496"
           id="path2592"
           inkscape:connector-curvature="0" />
        <path
           style="opacity:0.97000002;fill:#38598a;fill-opacity:1;stroke:none;stroke-width:2.33340621;stroke-miterlimit:4;stroke-dasharray:none"
           d="m 24.252163,121.44637 c 1.006798,-2.18786 1.087374,-4.68234 0.168911,-6.949 -0.917634,-2.26461 -2.757232,-4.10314 -5.108762,-5.06718 2.1e-5,1e-5 -0.0016,-6.6e-4 -0.0016,-6.5e-4 -2.344854,-0.96082 -4.956109,-0.95088 -7.209609,0.0208 -5.17e-4,2.3e-4 -10e-4,4.5e-4 -0.0015,4.8e-4 -2.2566253,0.97358 -3.9390206,2.81307 -4.7463882,5.07441 8.712e-4,-0.002 -0.00152,0.004 -6.459e-4,0.002 -0.8049992,2.256 -0.6773666,4.74767 0.2775936,6.90793 0,0 3.307e-4,7.3e-4 3.307e-4,7.3e-4 0.9568651,2.16405 2.6758268,3.85316 4.8118318,4.73112 2.55e-4,10e-5 5.1e-4,2.1e-4 7.66e-4,3.1e-4 4.38474,1.80179 9.718536,-0.17792 11.809016,-4.72072"
           id="path2594"
           inkscape:connector-curvature="0" />
      </g>
      <g
         id="g2612"
         transform="matrix(-0.16440437,0.28475673,0.28475673,0.16440437,98.973273,159.53065)"
         style="stroke-width:4.40958691"
         inkscape:transform-center-x="25.72283"
         inkscape:transform-center-y="27.162144">
        <path
           style="opacity:0.97000002;fill:#214478;fill-opacity:1;stroke:none;stroke-width:2.33340621;stroke-miterlimit:4;stroke-dasharray:none"
           d="m 51.803291,136.12047 c 2.878234,-4.81766 1.240387,-11.15201 -3.934409,-14.04251 -5.19464,-2.90159 -11.462603,-0.96802 -14.030088,4.03688 -2.563975,4.99804 -0.62922,11.11683 4.098541,13.75427 4.748023,2.64875 10.983781,1.07562 13.865956,-3.74864 z"
           id="path2598"
           inkscape:connector-curvature="0" />
        <path
           style="opacity:0.97000002;fill:#afc6e9;fill-opacity:1;stroke:none;stroke-width:2.33340621;stroke-miterlimit:4;stroke-dasharray:none"
           d="m -123.46929,134.01657 c -1.01199,-1.60663 -3.15471,-2.07727 -4.78788,-1.02401 -1.63223,1.05265 -2.08747,3.1974 -1.04522,4.78163 1.04245,1.58455 3.17887,2.01912 4.76817,0.99586 1.58834,-1.02265 2.07672,-3.14717 1.06493,-4.75348 z"
           id="path2600"
           inkscape:connector-curvature="0" />
        <path
           style="opacity:0.97000002;fill:#97b0d6;fill-opacity:1;stroke:none;stroke-width:2.33340621;stroke-miterlimit:4;stroke-dasharray:none"
           d="m -96.129596,118.99897 c -0.51782,-1.12686 -1.45454,-1.95649 -2.587482,-2.35015 -1.131656,-0.39322 -2.416152,-0.33495 -3.567842,0.22746 0,0 -3.1e-4,1.5e-4 -3.1e-4,1.5e-4 -1.12252,0.54828 -1.97694,1.51304 -2.37073,2.67226 -3e-5,1e-4 -7e-5,2.1e-4 -1e-4,3.1e-4 -0.39391,1.15983 -0.29336,2.41222 0.26149,3.48633 6e-5,1e-4 1e-4,2e-4 1.5e-4,2.9e-4 0.55454,1.07329 1.51653,1.88112 2.65953,2.25708 0,0 1.6e-4,5e-5 1.6e-4,5e-5 1.14372,0.37615 2.380993,0.29237 3.45018,-0.23051 5.1e-5,-2e-5 1.02e-4,-5e-5 1.53e-4,-7e-5 2.206941,-1.07941 3.204669,-3.77851 2.154801,-6.0632 z"
           id="path2602"
           inkscape:connector-curvature="0" />
        <path
           style="opacity:0.97000002;fill:#7f9ac3;fill-opacity:1;stroke:none;stroke-width:2.33340621;stroke-miterlimit:4;stroke-dasharray:none"
           d="m -66.689902,108.79803 c -0.340979,-1.49525 -1.266426,-2.75499 -2.579095,-3.52245 -1.310512,-0.7662 -2.927316,-0.9913 -4.486025,-0.5657 -2.23e-4,6e-5 -4.46e-4,1.2e-4 -6.7e-4,1.9e-4 -1.53303,0.41877 -2.823276,1.42124 -3.572072,2.76569 0,0 -3.28e-4,5.8e-4 -3.28e-4,5.8e-4 -0.749322,1.34579 -0.889112,2.9076 -0.431789,4.34543 6.7e-5,2.2e-4 1.34e-4,4.3e-4 2.01e-4,6.4e-4 0.456812,1.43565 1.470045,2.63211 2.77838,3.34505 9.6e-5,5e-5 1.91e-4,10e-5 2.86e-4,1.5e-4 1.310058,0.71378 2.821482,0.89443 4.225067,0.51001 1.06e-4,-3e-5 2.13e-4,-6e-5 3.2e-4,-9e-5 2.87675,-0.78805 4.762694,-3.82317 4.065725,-6.8795 z"
           id="path2604"
           inkscape:connector-curvature="0" />
        <path
           style="opacity:0.97000002;fill:#6885b0;fill-opacity:1;stroke:none;stroke-width:2.33340621;stroke-miterlimit:4;stroke-dasharray:none"
           d="m -35.734297,105.79129 c 0.06588,-1.82252 -0.609627,-3.56898 -1.917115,-4.86278 -1.30515,-1.291476 -3.144017,-2.029239 -5.100889,-1.987665 -2.2e-5,0 -10e-4,2.1e-5 -10e-4,2.1e-5 -0.559536,0.01197 -1.110885,0.08782 -1.642493,0.223084 -1.304499,0.335744 -2.477433,1.0253 -3.369859,1.99285 -2.3e-4,2.4e-4 -4.59e-4,4.9e-4 -6.88e-4,7.4e-4 -1.259155,1.36557 -1.840044,3.14928 -1.690735,4.94791 2.7e-5,3.3e-4 5.4e-5,6.5e-4 8e-5,9.6e-4 0.149251,1.79476 1.010053,3.46098 2.319874,4.64979 1.2e-4,1.1e-4 2.4e-4,2.1e-4 3.6e-4,3.2e-4 0.932088,0.84585 2.04767,1.41219 3.221538,1.65689 0.480732,0.0986 0.972993,0.14353 1.469678,0.1316 -10e-7,0 4.89e-4,-1e-5 4.88e-4,-1e-5 3.477624,-0.0838 6.575316,-3.0052 6.710817,-6.75373"
           id="path2606"
           inkscape:connector-curvature="0" />
        <path
           style="opacity:0.97000002;fill:#506f9d;fill-opacity:1;stroke:none;stroke-width:2.33340621;stroke-miterlimit:4;stroke-dasharray:none"
           d="m -4.9714961,110.63058 c 0.5576602,-2.04418 0.2623607,-4.21179 -0.8751827,-6.03677 -1.1360547,-1.82257 -3.0210651,-3.14652 -5.2329412,-3.62295 2.3e-5,0 -0.0014,-3.1e-4 -0.0014,-3e-4 -2.198285,-0.47313 -4.471228,-0.0528 -6.269255,1.14725 -3.74e-4,2.5e-4 -7.51e-4,5.1e-4 -0.0011,7.5e-4 -1.800625,1.20221 -2.949717,3.0625 -3.27543,5.14204 -6.7e-5,4.3e-4 -1.35e-4,8.6e-4 -1.49e-4,9.5e-4 -0.324477,2.07391 0.191874,4.20026 1.351158,5.9071 0,0 3.66e-4,5.3e-4 3.66e-4,5.3e-4 1.161971,1.71051 2.890883,2.89262 4.846801,3.31587 2.14e-4,5e-5 4.27e-4,9e-5 6.41e-4,1.4e-4 3.995861,0.86432 8.303937,-1.62974 9.4565845,-5.85496"
           id="path2608"
           inkscape:connector-curvature="0" />
        <path
           style="opacity:0.97000002;fill:#38598a;fill-opacity:1;stroke:none;stroke-width:2.33340621;stroke-miterlimit:4;stroke-dasharray:none"
           d="m 24.252163,121.44637 c 1.006798,-2.18786 1.087374,-4.68234 0.168911,-6.949 -0.917634,-2.26461 -2.757232,-4.10314 -5.108762,-5.06718 2.1e-5,1e-5 -0.0016,-6.6e-4 -0.0016,-6.5e-4 -2.344854,-0.96082 -4.956109,-0.95088 -7.209609,0.0208 -5.17e-4,2.3e-4 -10e-4,4.5e-4 -0.0015,4.8e-4 -2.2566253,0.97358 -3.9390206,2.81307 -4.7463882,5.07441 8.712e-4,-0.002 -0.00152,0.004 -6.459e-4,0.002 -0.8049992,2.256 -0.6773666,4.74767 0.2775936,6.90793 0,0 3.307e-4,7.3e-4 3.307e-4,7.3e-4 0.9568651,2.16405 2.6758268,3.85316 4.8118318,4.73112 2.55e-4,10e-5 5.1e-4,2.1e-4 7.66e-4,3.1e-4 4.38474,1.80179 9.718536,-0.17792 11.809016,-4.72072"
           id="path2610"
           inkscape:connector-curvature="0" />
      </g>
      <g
         id="g2628"
         transform="matrix(-0.28475673,0.16440438,0.16440438,0.28475673,100.28607,122.65145)"
         style="stroke-width:4.40958691"
         inkscape:transform-center-x="35.452295"
         inkscape:transform-center-y="11.193967">
        <path
           style="opacity:0.97000002;fill:#214478;fill-opacity:1;stroke:none;stroke-width:2.33340621;stroke-miterlimit:4;stroke-dasharray:none"
           d="m 51.803291,136.12047 c 2.878234,-4.81766 1.240387,-11.15201 -3.934409,-14.04251 -5.19464,-2.90159 -11.462603,-0.96802 -14.030088,4.03688 -2.563975,4.99804 -0.62922,11.11683 4.098541,13.75427 4.748023,2.64875 10.983781,1.07562 13.865956,-3.74864 z"
           id="path2614"
           inkscape:connector-curvature="0" />
        <path
           style="opacity:0.97000002;fill:#afc6e9;fill-opacity:1;stroke:none;stroke-width:2.33340621;stroke-miterlimit:4;stroke-dasharray:none"
           d="m -123.46929,134.01657 c -1.01199,-1.60663 -3.15471,-2.07727 -4.78788,-1.02401 -1.63223,1.05265 -2.08747,3.1974 -1.04522,4.78163 1.04245,1.58455 3.17887,2.01912 4.76817,0.99586 1.58834,-1.02265 2.07672,-3.14717 1.06493,-4.75348 z"
           id="path2616"
           inkscape:connector-curvature="0" />
        <path
           style="opacity:0.97000002;fill:#97b0d6;fill-opacity:1;stroke:none;stroke-width:2.33340621;stroke-miterlimit:4;stroke-dasharray:none"
           d="m -96.129596,118.99897 c -0.51782,-1.12686 -1.45454,-1.95649 -2.587482,-2.35015 -1.131656,-0.39322 -2.416152,-0.33495 -3.567842,0.22746 0,0 -3.1e-4,1.5e-4 -3.1e-4,1.5e-4 -1.12252,0.54828 -1.97694,1.51304 -2.37073,2.67226 -3e-5,1e-4 -7e-5,2.1e-4 -1e-4,3.1e-4 -0.39391,1.15983 -0.29336,2.41222 0.26149,3.48633 6e-5,1e-4 1e-4,2e-4 1.5e-4,2.9e-4 0.55454,1.07329 1.51653,1.88112 2.65953,2.25708 0,0 1.6e-4,5e-5 1.6e-4,5e-5 1.14372,0.37615 2.380993,0.29237 3.45018,-0.23051 5.1e-5,-2e-5 1.02e-4,-5e-5 1.53e-4,-7e-5 2.206941,-1.07941 3.204669,-3.77851 2.154801,-6.0632 z"
           id="path2618"
           inkscape:connector-curvature="0" />
        <path
           style="opacity:0.97000002;fill:#7f9ac3;fill-opacity:1;stroke:none;stroke-width:2.33340621;stroke-miterlimit:4;stroke-dasharray:none"
           d="m -66.689902,108.79803 c -0.340979,-1.49525 -1.266426,-2.75499 -2.579095,-3.52245 -1.310512,-0.7662 -2.927316,-0.9913 -4.486025,-0.5657 -2.23e-4,6e-5 -4.46e-4,1.2e-4 -6.7e-4,1.9e-4 -1.53303,0.41877 -2.823276,1.42124 -3.572072,2.76569 0,0 -3.28e-4,5.8e-4 -3.28e-4,5.8e-4 -0.749322,1.34579 -0.889112,2.9076 -0.431789,4.34543 6.7e-5,2.2e-4 1.34e-4,4.3e-4 2.01e-4,6.4e-4 0.456812,1.43565 1.470045,2.63211 2.77838,3.34505 9.6e-5,5e-5 1.91e-4,10e-5 2.86e-4,1.5e-4 1.310058,0.71378 2.821482,0.89443 4.225067,0.51001 1.06e-4,-3e-5 2.13e-4,-6e-5 3.2e-4,-9e-5 2.87675,-0.78805 4.762694,-3.82317 4.065725,-6.8795 z"
           id="path2620"
           inkscape:connector-curvature="0" />
        <path
           style="opacity:0.97000002;fill:#6885b0;fill-opacity:1;stroke:none;stroke-width:2.33340621;stroke-miterlimit:4;stroke-dasharray:none"
           d="m -35.734297,105.79129 c 0.06588,-1.82252 -0.609627,-3.56898 -1.917115,-4.86278 -1.30515,-1.291476 -3.144017,-2.029239 -5.100889,-1.987665 -2.2e-5,0 -10e-4,2.1e-5 -10e-4,2.1e-5 -0.559536,0.01197 -1.110885,0.08782 -1.642493,0.223084 -1.304499,0.335744 -2.477433,1.0253 -3.369859,1.99285 -2.3e-4,2.4e-4 -4.59e-4,4.9e-4 -6.88e-4,7.4e-4 -1.259155,1.36557 -1.840044,3.14928 -1.690735,4.94791 2.7e-5,3.3e-4 5.4e-5,6.5e-4 8e-5,9.6e-4 0.149251,1.79476 1.010053,3.46098 2.319874,4.64979 1.2e-4,1.1e-4 2.4e-4,2.1e-4 3.6e-4,3.2e-4 0.932088,0.84585 2.04767,1.41219 3.221538,1.65689 0.480732,0.0986 0.972993,0.14353 1.469678,0.1316 -10e-7,0 4.89e-4,-1e-5 4.88e-4,-1e-5 3.477624,-0.0838 6.575316,-3.0052 6.710817,-6.75373"
           id="path2622"
           inkscape:connector-curvature="0" />
        <path
           style="opacity:0.97000002;fill:#506f9d;fill-opacity:1;stroke:none;stroke-width:2.33340621;stroke-miterlimit:4;stroke-dasharray:none"
           d="m -4.9714961,110.63058 c 0.5576602,-2.04418 0.2623607,-4.21179 -0.8751827,-6.03677 -1.1360547,-1.82257 -3.0210651,-3.14652 -5.2329412,-3.62295 2.3e-5,0 -0.0014,-3.1e-4 -0.0014,-3e-4 -2.198285,-0.47313 -4.471228,-0.0528 -6.269255,1.14725 -3.74e-4,2.5e-4 -7.51e-4,5.1e-4 -0.0011,7.5e-4 -1.800625,1.20221 -2.949717,3.0625 -3.27543,5.14204 -6.7e-5,4.3e-4 -1.35e-4,8.6e-4 -1.49e-4,9.5e-4 -0.324477,2.07391 0.191874,4.20026 1.351158,5.9071 0,0 3.66e-4,5.3e-4 3.66e-4,5.3e-4 1.161971,1.71051 2.890883,2.89262 4.846801,3.31587 2.14e-4,5e-5 4.27e-4,9e-5 6.41e-4,1.4e-4 3.995861,0.86432 8.303937,-1.62974 9.4565845,-5.85496"
           id="path2624"
           inkscape:connector-curvature="0" />
        <path
           style="opacity:0.97000002;fill:#38598a;fill-opacity:1;stroke:none;stroke-width:2.33340621;stroke-miterlimit:4;stroke-dasharray:none"
           d="m 24.252163,121.44637 c 1.006798,-2.18786 1.087374,-4.68234 0.168911,-6.949 -0.917634,-2.26461 -2.757232,-4.10314 -5.108762,-5.06718 2.1e-5,1e-5 -0.0016,-6.6e-4 -0.0016,-6.5e-4 -2.344854,-0.96082 -4.956109,-0.95088 -7.209609,0.0208 -5.17e-4,2.3e-4 -10e-4,4.5e-4 -0.0015,4.8e-4 -2.2566253,0.97358 -3.9390206,2.81307 -4.7463882,5.07441 8.712e-4,-0.002 -0.00152,0.004 -6.459e-4,0.002 -0.8049992,2.256 -0.6773666,4.74767 0.2775936,6.90793 0,0 3.307e-4,7.3e-4 3.307e-4,7.3e-4 0.9568651,2.16405 2.6758268,3.85316 4.8118318,4.73112 2.55e-4,10e-5 5.1e-4,2.1e-4 7.66e-4,3.1e-4 4.38474,1.80179 9.718536,-0.17792 11.809016,-4.72072"
           id="path2626"
           inkscape:connector-curvature="0" />
      </g>
      <g
         id="g2644"
         transform="matrix(-0.32880875,0,0,0.32880875,119.86259,91.36952)"
         style="stroke-width:4.40958691"
         inkscape:transform-center-x="35.983308"
         inkscape:transform-center-y="-12.699997">
        <path
           style="opacity:0.97000002;fill:#214478;fill-opacity:1;stroke:none;stroke-width:2.33340621;stroke-miterlimit:4;stroke-dasharray:none"
           d="m 51.803291,136.12047 c 2.878234,-4.81766 1.240387,-11.15201 -3.934409,-14.04251 -5.19464,-2.90159 -11.462603,-0.96802 -14.030088,4.03688 -2.563975,4.99804 -0.62922,11.11683 4.098541,13.75427 4.748023,2.64875 10.983781,1.07562 13.865956,-3.74864 z"
           id="path2630"
           inkscape:connector-curvature="0" />
        <path
           style="opacity:0.97000002;fill:#afc6e9;fill-opacity:1;stroke:none;stroke-width:2.33340621;stroke-miterlimit:4;stroke-dasharray:none"
           d="m -123.46929,134.01657 c -1.01199,-1.60663 -3.15471,-2.07727 -4.78788,-1.02401 -1.63223,1.05265 -2.08747,3.1974 -1.04522,4.78163 1.04245,1.58455 3.17887,2.01912 4.76817,0.99586 1.58834,-1.02265 2.07672,-3.14717 1.06493,-4.75348 z"
           id="path2632"
           inkscape:connector-curvature="0" />
        <path
           style="opacity:0.97000002;fill:#97b0d6;fill-opacity:1;stroke:none;stroke-width:2.33340621;stroke-miterlimit:4;stroke-dasharray:none"
           d="m -96.129596,118.99897 c -0.51782,-1.12686 -1.45454,-1.95649 -2.587482,-2.35015 -1.131656,-0.39322 -2.416152,-0.33495 -3.567842,0.22746 0,0 -3.1e-4,1.5e-4 -3.1e-4,1.5e-4 -1.12252,0.54828 -1.97694,1.51304 -2.37073,2.67226 -3e-5,1e-4 -7e-5,2.1e-4 -1e-4,3.1e-4 -0.39391,1.15983 -0.29336,2.41222 0.26149,3.48633 6e-5,1e-4 1e-4,2e-4 1.5e-4,2.9e-4 0.55454,1.07329 1.51653,1.88112 2.65953,2.25708 0,0 1.6e-4,5e-5 1.6e-4,5e-5 1.14372,0.37615 2.380993,0.29237 3.45018,-0.23051 5.1e-5,-2e-5 1.02e-4,-5e-5 1.53e-4,-7e-5 2.206941,-1.07941 3.204669,-3.77851 2.154801,-6.0632 z"
           id="path2634"
           inkscape:connector-curvature="0" />
        <path
           style="opacity:0.97000002;fill:#7f9ac3;fill-opacity:1;stroke:none;stroke-width:2.33340621;stroke-miterlimit:4;stroke-dasharray:none"
           d="m -66.689902,108.79803 c -0.340979,-1.49525 -1.266426,-2.75499 -2.579095,-3.52245 -1.310512,-0.7662 -2.927316,-0.9913 -4.486025,-0.5657 -2.23e-4,6e-5 -4.46e-4,1.2e-4 -6.7e-4,1.9e-4 -1.53303,0.41877 -2.823276,1.42124 -3.572072,2.76569 0,0 -3.28e-4,5.8e-4 -3.28e-4,5.8e-4 -0.749322,1.34579 -0.889112,2.9076 -0.431789,4.34543 6.7e-5,2.2e-4 1.34e-4,4.3e-4 2.01e-4,6.4e-4 0.456812,1.43565 1.470045,2.63211 2.77838,3.34505 9.6e-5,5e-5 1.91e-4,10e-5 2.86e-4,1.5e-4 1.310058,0.71378 2.821482,0.89443 4.225067,0.51001 1.06e-4,-3e-5 2.13e-4,-6e-5 3.2e-4,-9e-5 2.87675,-0.78805 4.762694,-3.82317 4.065725,-6.8795 z"
           id="path2636"
           inkscape:connector-curvature="0" />
        <path
           style="opacity:0.97000002;fill:#6885b0;fill-opacity:1;stroke:none;stroke-width:2.33340621;stroke-miterlimit:4;stroke-dasharray:none"
           d="m -35.734297,105.79129 c 0.06588,-1.82252 -0.609627,-3.56898 -1.917115,-4.86278 -1.30515,-1.291476 -3.144017,-2.029239 -5.100889,-1.987665 -2.2e-5,0 -10e-4,2.1e-5 -10e-4,2.1e-5 -0.559536,0.01197 -1.110885,0.08782 -1.642493,0.223084 -1.304499,0.335744 -2.477433,1.0253 -3.369859,1.99285 -2.3e-4,2.4e-4 -4.59e-4,4.9e-4 -6.88e-4,7.4e-4 -1.259155,1.36557 -1.840044,3.14928 -1.690735,4.94791 2.7e-5,3.3e-4 5.4e-5,6.5e-4 8e-5,9.6e-4 0.149251,1.79476 1.010053,3.46098 2.319874,4.64979 1.2e-4,1.1e-4 2.4e-4,2.1e-4 3.6e-4,3.2e-4 0.932088,0.84585 2.04767,1.41219 3.221538,1.65689 0.480732,0.0986 0.972993,0.14353 1.469678,0.1316 -10e-7,0 4.89e-4,-1e-5 4.88e-4,-1e-5 3.477624,-0.0838 6.575316,-3.0052 6.710817,-6.75373"
           id="path2638"
           inkscape:connector-curvature="0" />
        <path
           style="opacity:0.97000002;fill:#506f9d;fill-opacity:1;stroke:none;stroke-width:2.33340621;stroke-miterlimit:4;stroke-dasharray:none"
           d="m -4.9714961,110.63058 c 0.5576602,-2.04418 0.2623607,-4.21179 -0.8751827,-6.03677 -1.1360547,-1.82257 -3.0210651,-3.14652 -5.2329412,-3.62295 2.3e-5,0 -0.0014,-3.1e-4 -0.0014,-3e-4 -2.198285,-0.47313 -4.471228,-0.0528 -6.269255,1.14725 -3.74e-4,2.5e-4 -7.51e-4,5.1e-4 -0.0011,7.5e-4 -1.800625,1.20221 -2.949717,3.0625 -3.27543,5.14204 -6.7e-5,4.3e-4 -1.35e-4,8.6e-4 -1.49e-4,9.5e-4 -0.324477,2.07391 0.191874,4.20026 1.351158,5.9071 0,0 3.66e-4,5.3e-4 3.66e-4,5.3e-4 1.161971,1.71051 2.890883,2.89262 4.846801,3.31587 2.14e-4,5e-5 4.27e-4,9e-5 6.41e-4,1.4e-4 3.995861,0.86432 8.303937,-1.62974 9.4565845,-5.85496"
           id="path2640"
           inkscape:connector-curvature="0" />
        <path
           style="opacity:0.97000002;fill:#38598a;fill-opacity:1;stroke:none;stroke-width:2.33340621;stroke-miterlimit:4;stroke-dasharray:none"
           d="m 24.252163,121.44637 c 1.006798,-2.18786 1.087374,-4.68234 0.168911,-6.949 -0.917634,-2.26461 -2.757232,-4.10314 -5.108762,-5.06718 2.1e-5,1e-5 -0.0016,-6.6e-4 -0.0016,-6.5e-4 -2.344854,-0.96082 -4.956109,-0.95088 -7.209609,0.0208 -5.17e-4,2.3e-4 -10e-4,4.5e-4 -0.0015,4.8e-4 -2.2566253,0.97358 -3.9390206,2.81307 -4.7463882,5.07441 8.712e-4,-0.002 -0.00152,0.004 -6.459e-4,0.002 -0.8049992,2.256 -0.6773666,4.74767 0.2775936,6.90793 0,0 3.307e-4,7.3e-4 3.307e-4,7.3e-4 0.9568651,2.16405 2.6758268,3.85316 4.8118318,4.73112 2.55e-4,10e-5 5.1e-4,2.1e-4 7.66e-4,3.1e-4 4.38474,1.80179 9.718536,-0.17792 11.809016,-4.72072"
           id="path2642"
           inkscape:connector-curvature="0" />
      </g>
      <g
         id="g2660"
         transform="matrix(-0.28475673,-0.16440437,-0.16440437,0.28475673,152.45732,74.066834)"
         style="stroke-width:4.40958691"
         inkscape:transform-center-x="27.162141"
         inkscape:transform-center-y="-25.722827">
        <path
           style="opacity:0.97000002;fill:#214478;fill-opacity:1;stroke:none;stroke-width:2.33340621;stroke-miterlimit:4;stroke-dasharray:none"
           d="m 51.803291,136.12047 c 2.878234,-4.81766 1.240387,-11.15201 -3.934409,-14.04251 -5.19464,-2.90159 -11.462603,-0.96802 -14.030088,4.03688 -2.563975,4.99804 -0.62922,11.11683 4.098541,13.75427 4.748023,2.64875 10.983781,1.07562 13.865956,-3.74864 z"
           id="path2646"
           inkscape:connector-curvature="0" />
        <path
           style="opacity:0.97000002;fill:#afc6e9;fill-opacity:1;stroke:none;stroke-width:2.33340621;stroke-miterlimit:4;stroke-dasharray:none"
           d="m -123.46929,134.01657 c -1.01199,-1.60663 -3.15471,-2.07727 -4.78788,-1.02401 -1.63223,1.05265 -2.08747,3.1974 -1.04522,4.78163 1.04245,1.58455 3.17887,2.01912 4.76817,0.99586 1.58834,-1.02265 2.07672,-3.14717 1.06493,-4.75348 z"
           id="path2648"
           inkscape:connector-curvature="0" />
        <path
           style="opacity:0.97000002;fill:#97b0d6;fill-opacity:1;stroke:none;stroke-width:2.33340621;stroke-miterlimit:4;stroke-dasharray:none"
           d="m -96.129596,118.99897 c -0.51782,-1.12686 -1.45454,-1.95649 -2.587482,-2.35015 -1.131656,-0.39322 -2.416152,-0.33495 -3.567842,0.22746 0,0 -3.1e-4,1.5e-4 -3.1e-4,1.5e-4 -1.12252,0.54828 -1.97694,1.51304 -2.37073,2.67226 -3e-5,1e-4 -7e-5,2.1e-4 -1e-4,3.1e-4 -0.39391,1.15983 -0.29336,2.41222 0.26149,3.48633 6e-5,1e-4 1e-4,2e-4 1.5e-4,2.9e-4 0.55454,1.07329 1.51653,1.88112 2.65953,2.25708 0,0 1.6e-4,5e-5 1.6e-4,5e-5 1.14372,0.37615 2.380993,0.29237 3.45018,-0.23051 5.1e-5,-2e-5 1.02e-4,-5e-5 1.53e-4,-7e-5 2.206941,-1.07941 3.204669,-3.77851 2.154801,-6.0632 z"
           id="path2650"
           inkscape:connector-curvature="0" />
        <path
           style="opacity:0.97000002;fill:#7f9ac3;fill-opacity:1;stroke:none;stroke-width:2.33340621;stroke-miterlimit:4;stroke-dasharray:none"
           d="m -66.689902,108.79803 c -0.340979,-1.49525 -1.266426,-2.75499 -2.579095,-3.52245 -1.310512,-0.7662 -2.927316,-0.9913 -4.486025,-0.5657 -2.23e-4,6e-5 -4.46e-4,1.2e-4 -6.7e-4,1.9e-4 -1.53303,0.41877 -2.823276,1.42124 -3.572072,2.76569 0,0 -3.28e-4,5.8e-4 -3.28e-4,5.8e-4 -0.749322,1.34579 -0.889112,2.9076 -0.431789,4.34543 6.7e-5,2.2e-4 1.34e-4,4.3e-4 2.01e-4,6.4e-4 0.456812,1.43565 1.470045,2.63211 2.77838,3.34505 9.6e-5,5e-5 1.91e-4,10e-5 2.86e-4,1.5e-4 1.310058,0.71378 2.821482,0.89443 4.225067,0.51001 1.06e-4,-3e-5 2.13e-4,-6e-5 3.2e-4,-9e-5 2.87675,-0.78805 4.762694,-3.82317 4.065725,-6.8795 z"
           id="path2652"
           inkscape:connector-curvature="0" />
        <path
           style="opacity:0.97000002;fill:#6885b0;fill-opacity:1;stroke:none;stroke-width:2.33340621;stroke-miterlimit:4;stroke-dasharray:none"
           d="m -35.734297,105.79129 c 0.06588,-1.82252 -0.609627,-3.56898 -1.917115,-4.86278 -1.30515,-1.291476 -3.144017,-2.029239 -5.100889,-1.987665 -2.2e-5,0 -10e-4,2.1e-5 -10e-4,2.1e-5 -0.559536,0.01197 -1.110885,0.08782 -1.642493,0.223084 -1.304499,0.335744 -2.477433,1.0253 -3.369859,1.99285 -2.3e-4,2.4e-4 -4.59e-4,4.9e-4 -6.88e-4,7.4e-4 -1.259155,1.36557 -1.840044,3.14928 -1.690735,4.94791 2.7e-5,3.3e-4 5.4e-5,6.5e-4 8e-5,9.6e-4 0.149251,1.79476 1.010053,3.46098 2.319874,4.64979 1.2e-4,1.1e-4 2.4e-4,2.1e-4 3.6e-4,3.2e-4 0.932088,0.84585 2.04767,1.41219 3.221538,1.65689 0.480732,0.0986 0.972993,0.14353 1.469678,0.1316 -10e-7,0 4.89e-4,-1e-5 4.88e-4,-1e-5 3.477624,-0.0838 6.575316,-3.0052 6.710817,-6.75373"
           id="path2654"
           inkscape:connector-curvature="0" />
        <path
           style="opacity:0.97000002;fill:#506f9d;fill-opacity:1;stroke:none;stroke-width:2.33340621;stroke-miterlimit:4;stroke-dasharray:none"
           d="m -4.9714961,110.63058 c 0.5576602,-2.04418 0.2623607,-4.21179 -0.8751827,-6.03677 -1.1360547,-1.82257 -3.0210651,-3.14652 -5.2329412,-3.62295 2.3e-5,0 -0.0014,-3.1e-4 -0.0014,-3e-4 -2.198285,-0.47313 -4.471228,-0.0528 -6.269255,1.14725 -3.74e-4,2.5e-4 -7.51e-4,5.1e-4 -0.0011,7.5e-4 -1.800625,1.20221 -2.949717,3.0625 -3.27543,5.14204 -6.7e-5,4.3e-4 -1.35e-4,8.6e-4 -1.49e-4,9.5e-4 -0.324477,2.07391 0.191874,4.20026 1.351158,5.9071 0,0 3.66e-4,5.3e-4 3.66e-4,5.3e-4 1.161971,1.71051 2.890883,2.89262 4.846801,3.31587 2.14e-4,5e-5 4.27e-4,9e-5 6.41e-4,1.4e-4 3.995861,0.86432 8.303937,-1.62974 9.4565845,-5.85496"
           id="path2656"
           inkscape:connector-curvature="0" />
        <path
           style="opacity:0.97000002;fill:#38598a;fill-opacity:1;stroke:none;stroke-width:2.33340621;stroke-miterlimit:4;stroke-dasharray:none"
           d="m 24.252163,121.44637 c 1.006798,-2.18786 1.087374,-4.68234 0.168911,-6.949 -0.917634,-2.26461 -2.757232,-4.10314 -5.108762,-5.06718 2.1e-5,1e-5 -0.0016,-6.6e-4 -0.0016,-6.5e-4 -2.344854,-0.96082 -4.956109,-0.95088 -7.209609,0.0208 -5.17e-4,2.3e-4 -10e-4,4.5e-4 -0.0015,4.8e-4 -2.2566253,0.97358 -3.9390206,2.81307 -4.7463882,5.07441 8.712e-4,-0.002 -0.00152,0.004 -6.459e-4,0.002 -0.8049992,2.256 -0.6773666,4.74767 0.2775936,6.90793 0,0 3.307e-4,7.3e-4 3.307e-4,7.3e-4 0.9568651,2.16405 2.6758268,3.85316 4.8118318,4.73112 2.55e-4,10e-5 5.1e-4,2.1e-4 7.66e-4,3.1e-4 4.38474,1.80179 9.718536,-0.17792 11.809016,-4.72072"
           id="path2658"
           inkscape:connector-curvature="0" />
      </g>
      <g
         inkscape:transform-center-y="-35.452289"
         inkscape:transform-center-x="11.193964"
         style="stroke-width:4.40958691"
         transform="matrix(-0.16440438,-0.28475673,-0.28475673,0.16440438,189.33652,75.379634)"
         id="g2475">
        <path
           inkscape:connector-curvature="0"
           id="path820"
           d="m 51.803291,136.12047 c 2.878234,-4.81766 1.240387,-11.15201 -3.934409,-14.04251 -5.19464,-2.90159 -11.462603,-0.96802 -14.030088,4.03688 -2.563975,4.99804 -0.62922,11.11683 4.098541,13.75427 4.748023,2.64875 10.983781,1.07562 13.865956,-3.74864 z"
           style="opacity:0.97000002;fill:#214478;fill-opacity:1;stroke:none;stroke-width:2.33340621;stroke-miterlimit:4;stroke-dasharray:none" />
        <path
           inkscape:connector-curvature="0"
           id="path2286"
           d="m -123.46929,134.01657 c -1.01199,-1.60663 -3.15471,-2.07727 -4.78788,-1.02401 -1.63223,1.05265 -2.08747,3.1974 -1.04522,4.78163 1.04245,1.58455 3.17887,2.01912 4.76817,0.99586 1.58834,-1.02265 2.07672,-3.14717 1.06493,-4.75348 z"
           style="opacity:0.97000002;fill:#afc6e9;fill-opacity:1;stroke:none;stroke-width:2.33340621;stroke-miterlimit:4;stroke-dasharray:none" />
        <path
           inkscape:connector-curvature="0"
           id="path2436"
           d="m -96.129596,118.99897 c -0.51782,-1.12686 -1.45454,-1.95649 -2.587482,-2.35015 -1.131656,-0.39322 -2.416152,-0.33495 -3.567842,0.22746 0,0 -3.1e-4,1.5e-4 -3.1e-4,1.5e-4 -1.12252,0.54828 -1.97694,1.51304 -2.37073,2.67226 -3e-5,1e-4 -7e-5,2.1e-4 -1e-4,3.1e-4 -0.39391,1.15983 -0.29336,2.41222 0.26149,3.48633 6e-5,1e-4 1e-4,2e-4 1.5e-4,2.9e-4 0.55454,1.07329 1.51653,1.88112 2.65953,2.25708 0,0 1.6e-4,5e-5 1.6e-4,5e-5 1.14372,0.37615 2.380993,0.29237 3.45018,-0.23051 5.1e-5,-2e-5 1.02e-4,-5e-5 1.53e-4,-7e-5 2.206941,-1.07941 3.204669,-3.77851 2.154801,-6.0632 z"
           style="opacity:0.97000002;fill:#97b0d6;fill-opacity:1;stroke:none;stroke-width:2.33340621;stroke-miterlimit:4;stroke-dasharray:none" />
        <path
           inkscape:connector-curvature="0"
           id="path2438"
           d="m -66.689902,108.79803 c -0.340979,-1.49525 -1.266426,-2.75499 -2.579095,-3.52245 -1.310512,-0.7662 -2.927316,-0.9913 -4.486025,-0.5657 -2.23e-4,6e-5 -4.46e-4,1.2e-4 -6.7e-4,1.9e-4 -1.53303,0.41877 -2.823276,1.42124 -3.572072,2.76569 0,0 -3.28e-4,5.8e-4 -3.28e-4,5.8e-4 -0.749322,1.34579 -0.889112,2.9076 -0.431789,4.34543 6.7e-5,2.2e-4 1.34e-4,4.3e-4 2.01e-4,6.4e-4 0.456812,1.43565 1.470045,2.63211 2.77838,3.34505 9.6e-5,5e-5 1.91e-4,10e-5 2.86e-4,1.5e-4 1.310058,0.71378 2.821482,0.89443 4.225067,0.51001 1.06e-4,-3e-5 2.13e-4,-6e-5 3.2e-4,-9e-5 2.87675,-0.78805 4.762694,-3.82317 4.065725,-6.8795 z"
           style="opacity:0.97000002;fill:#7f9ac3;fill-opacity:1;stroke:none;stroke-width:2.33340621;stroke-miterlimit:4;stroke-dasharray:none" />
        <path
           inkscape:connector-curvature="0"
           id="path2440"
           d="m -35.734297,105.79129 c 0.06588,-1.82252 -0.609627,-3.56898 -1.917115,-4.86278 -1.30515,-1.291476 -3.144017,-2.029239 -5.100889,-1.987665 -2.2e-5,0 -10e-4,2.1e-5 -10e-4,2.1e-5 -0.559536,0.01197 -1.110885,0.08782 -1.642493,0.223084 -1.304499,0.335744 -2.477433,1.0253 -3.369859,1.99285 -2.3e-4,2.4e-4 -4.59e-4,4.9e-4 -6.88e-4,7.4e-4 -1.259155,1.36557 -1.840044,3.14928 -1.690735,4.94791 2.7e-5,3.3e-4 5.4e-5,6.5e-4 8e-5,9.6e-4 0.149251,1.79476 1.010053,3.46098 2.319874,4.64979 1.2e-4,1.1e-4 2.4e-4,2.1e-4 3.6e-4,3.2e-4 0.932088,0.84585 2.04767,1.41219 3.221538,1.65689 0.480732,0.0986 0.972993,0.14353 1.469678,0.1316 -10e-7,0 4.89e-4,-1e-5 4.88e-4,-1e-5 3.477624,-0.0838 6.575316,-3.0052 6.710817,-6.75373"
           style="opacity:0.97000002;fill:#6885b0;fill-opacity:1;stroke:none;stroke-width:2.33340621;stroke-miterlimit:4;stroke-dasharray:none" />
        <path
           inkscape:connector-curvature="0"
           id="path2442"
           d="m -4.9714961,110.63058 c 0.5576602,-2.04418 0.2623607,-4.21179 -0.8751827,-6.03677 -1.1360547,-1.82257 -3.0210651,-3.14652 -5.2329412,-3.62295 2.3e-5,0 -0.0014,-3.1e-4 -0.0014,-3e-4 -2.198285,-0.47313 -4.471228,-0.0528 -6.269255,1.14725 -3.74e-4,2.5e-4 -7.51e-4,5.1e-4 -0.0011,7.5e-4 -1.800625,1.20221 -2.949717,3.0625 -3.27543,5.14204 -6.7e-5,4.3e-4 -1.35e-4,8.6e-4 -1.49e-4,9.5e-4 -0.324477,2.07391 0.191874,4.20026 1.351158,5.9071 0,0 3.66e-4,5.3e-4 3.66e-4,5.3e-4 1.161971,1.71051 2.890883,2.89262 4.846801,3.31587 2.14e-4,5e-5 4.27e-4,9e-5 6.41e-4,1.4e-4 3.995861,0.86432 8.303937,-1.62974 9.4565845,-5.85496"
           style="opacity:0.97000002;fill:#506f9d;fill-opacity:1;stroke:none;stroke-width:2.33340621;stroke-miterlimit:4;stroke-dasharray:none" />
        <path
           inkscape:connector-curvature="0"
           id="path2444"
           d="m 24.252163,121.44637 c 1.006798,-2.18786 1.087374,-4.68234 0.168911,-6.949 -0.917634,-2.26461 -2.757232,-4.10314 -5.108762,-5.06718 2.1e-5,1e-5 -0.0016,-6.6e-4 -0.0016,-6.5e-4 -2.344854,-0.96082 -4.956109,-0.95088 -7.209609,0.0208 -5.17e-4,2.3e-4 -10e-4,4.5e-4 -0.0015,4.8e-4 -2.2566253,0.97358 -3.9390206,2.81307 -4.7463882,5.07441 8.712e-4,-0.002 -0.00152,0.004 -6.459e-4,0.002 -0.8049992,2.256 -0.6773666,4.74767 0.2775936,6.90793 0,0 3.307e-4,7.3e-4 3.307e-4,7.3e-4 0.9568651,2.16405 2.6758268,3.85316 4.8118318,4.73112 2.55e-4,10e-5 5.1e-4,2.1e-4 7.66e-4,3.1e-4 4.38474,1.80179 9.718536,-0.17792 11.809016,-4.72072"
           style="opacity:0.97000002;fill:#38598a;fill-opacity:1;stroke:none;stroke-width:2.33340621;stroke-miterlimit:4;stroke-dasharray:none" />
      </g>
    </g>
  </g>
</svg>
